<svg width="22" height="22" viewBox="0 0 22 22" fill="none" xmlns="http://www.w3.org/2000/svg">
<path fill-rule="evenodd" clip-rule="evenodd" d="M1.96751 14.6411L7.38195 20.0556L6.36316 21.0744C3.2871 23.7547 -2.21328 20.0323 0.948722 15.6599L1.96751 14.6411ZM3.94242 13.4039L5.23516 14.6966L12.8895 4.96533C12.8967 4.9528 12.9056 4.94205 12.9146 4.93131L12.9271 4.91699C13.0005 4.81672 13.0757 4.72361 13.1545 4.63767C13.8367 3.70841 13.8474 2.73617 13.4893 1.96447C13.3174 1.59384 13.0614 1.26976 12.7552 1.0173C12.4508 0.76663 12.0963 0.589372 11.7257 0.512381C10.9719 0.354818 10.1411 0.61802 9.51264 1.53296L3.94242 13.4039ZM5.5843 15.0458L6.95402 16.4155L16.7283 8.67164C16.7373 8.66448 16.7462 8.65911 16.7552 8.65374C17.6164 7.66002 17.6576 6.5893 17.2655 5.75135C17.0918 5.37893 16.8322 5.05306 16.5206 4.79702C16.2126 4.54456 15.8545 4.36552 15.4803 4.28494C14.8214 4.14529 14.107 4.32075 13.5198 4.96533C13.4553 5.05127 13.3855 5.13543 13.3121 5.22137C13.2888 5.2536 13.2655 5.28583 13.244 5.31806C13.2297 5.33775 13.2136 5.35387 13.1957 5.36819L5.5843 15.0458ZM7.30496 16.7664L8.62097 18.0825L20.474 12.6519C21.3997 12.0163 21.6539 11.1551 21.4821 10.3672C21.3979 9.98228 21.2117 9.61165 20.9539 9.29294C20.6942 8.97245 20.3612 8.70566 19.9852 8.52482C19.1347 8.11838 18.0479 8.16315 17.0506 9.06555H17.0488C17.0399 9.07271 17.0327 9.07988 17.0237 9.08525H17.0219L17.0184 9.08704L17.0166 9.08883L17.013 9.09062H17.0112L17.0076 9.09241L17.0058 9.0942L17.004 9.09599L17.0005 9.09778H16.9987L16.9951 9.09957H16.9933L16.9897 9.10136H16.9879L16.9843 9.10315H16.9826C16.9772 9.10494 16.9736 9.10673 16.9682 9.10852L7.30496 16.7664ZM8.70512 18.5766L7.96923 19.4844L2.50466 14.0216L3.51628 13.1658L9.07576 1.31273C9.08113 1.29662 9.08829 1.2805 9.09903 1.26618C9.10619 1.25364 9.11336 1.2429 9.12052 1.23395C9.85999 0.163235 10.8591 -0.137567 11.7776 0.0540155C12.2306 0.148911 12.6621 0.36377 13.0309 0.666363C13.398 0.967165 13.706 1.35749 13.9101 1.79974C14.2109 2.44611 14.2968 3.20707 14.0444 3.97698C14.5296 3.76033 15.0435 3.72452 15.5358 3.82837C15.9906 3.92505 16.4257 4.1417 16.7981 4.44788C17.1688 4.75047 17.4767 5.14259 17.6862 5.58663C18.0264 6.31357 18.098 7.18196 17.722 8.04497C18.5725 7.6815 19.4284 7.76028 20.1499 8.10406C20.5993 8.31892 20.995 8.63762 21.303 9.01721C21.6128 9.39858 21.8348 9.84262 21.9368 10.3082C22.1427 11.2446 21.8634 12.2562 20.8285 13.001C20.8088 13.0243 20.7856 13.044 20.7551 13.0583L20.7318 13.0691C20.7175 13.078 20.7014 13.0852 20.6853 13.0906L8.70512 18.5766Z" fill="white"/>
</svg>
