<svg width="37" height="37" viewBox="0 0 37 37" fill="none" xmlns="http://www.w3.org/2000/svg">
<path d="M27.4768 28.7894H26.3166C25.0955 28.7894 23.9353 29.2626 23.0805 30.1174L20.4702 32.6972C19.2795 33.8726 17.341 33.8726 16.1503 32.6972L13.54 30.1174C12.6852 29.2626 11.5098 28.7894 10.3039 28.7894H9.15903C6.62507 28.7894 4.57959 26.7592 4.57959 24.2558V7.60184C4.57959 5.09841 6.62507 3.06824 9.15903 3.06824H27.4768C30.0107 3.06824 32.0562 5.09841 32.0562 7.60184V24.2558C32.0562 26.7439 30.0107 28.7894 27.4768 28.7894Z" stroke="#9CCE00" stroke-width="1.5" stroke-miterlimit="10" stroke-linecap="round" stroke-linejoin="round"/>
<path d="M18.318 15.2648C20.2823 15.2648 21.8747 13.6724 21.8747 11.7081C21.8747 9.74381 20.2823 8.15149 18.318 8.15149C16.3536 8.15149 14.7612 9.74381 14.7612 11.7081C14.7612 13.6724 16.3536 15.2648 18.318 15.2648Z" stroke="#9CCE00" stroke-width="1.5" stroke-linecap="round" stroke-linejoin="round"/>
<path d="M24.4238 23.9047C24.4238 21.157 21.6914 18.9285 18.3178 18.9285C14.9443 18.9285 12.2119 21.157 12.2119 23.9047" stroke="#9CCE00" stroke-width="1.5" stroke-linecap="round" stroke-linejoin="round"/>
</svg>
