<svg width="34" height="34" viewBox="0 0 34 34" fill="none" xmlns="http://www.w3.org/2000/svg">
<path d="M14.0636 23.8125C14.0731 23.803 14.0665 23.7867 14.0531 23.7867C11.7912 23.779 9.12296 23.0528 6.40366 20.8466C1.29703 16.4621 0.110566 12.3355 0.0074023 9.65325C-0.0957619 6.97098 0.884348 4.39188 2.63814 2.63808C4.39193 0.884294 6.97109 -0.0957615 9.65335 0.00740267C12.3356 0.110567 16.4622 1.29695 20.8466 6.40358C25.1795 11.7165 23.7868 16.7716 22.5489 19.3507C21.8783 20.7434 20.7435 21.8782 19.2992 22.6004C18.0682 23.2159 16.2252 23.8314 14.0744 23.8383C14.061 23.8383 14.0541 23.8221 14.0636 23.8125ZM7.64158 19.4023C11.9229 22.9098 15.9463 22.1361 18.5254 20.8466C19.5571 20.3308 20.3823 19.5054 20.8981 18.4738C22.1877 15.8431 22.9615 11.8713 19.454 7.58997C15.4821 2.99916 11.9229 1.96752 9.60172 1.86435C7.43527 1.76119 5.37204 2.53492 3.97932 3.92764C2.58661 5.32035 1.81288 7.38364 1.91604 9.55009C2.0192 11.8713 3.05077 15.4304 7.64158 19.4023Z" fill="#295282"/>
<path d="M31.189 33.9226C31.1985 33.913 31.1918 33.8967 31.1783 33.8966C30.4701 33.888 29.8126 33.6293 29.2548 33.0715L21.7754 25.5921C21.5175 25.3341 21.2079 25.1278 20.7952 25.0762L14.9664 23.6835C14.4506 23.5804 14.1412 23.0645 14.296 22.5487C14.3991 22.0329 14.9149 21.7234 15.4307 21.8782L21.2595 23.2709C21.9817 23.4256 22.6006 23.7867 23.1164 24.3025L30.5958 31.7819C30.7506 31.9367 31.0085 32.0398 31.2148 32.0398C31.4211 32.0398 31.6791 31.9367 31.8339 31.7819C32.195 31.4208 32.195 30.8534 31.8339 30.5439L24.3545 23.0645C23.8387 22.5487 23.4776 21.9297 23.3228 21.2076L21.93 15.3788C21.8268 14.863 22.1364 14.3472 22.6006 14.244C23.1164 14.1408 23.6322 14.4503 23.7354 14.9146L25.1282 20.7433C25.2314 21.1044 25.3861 21.4139 25.644 21.7234L33.1234 29.2028C34.2067 30.286 34.2067 32.0398 33.1234 33.123C32.6163 33.6302 31.9097 33.9379 31.1997 33.9481C31.1863 33.9483 31.1795 33.9321 31.189 33.9226Z" fill="#295282"/>
<path d="M28.3262 31.782C28.1926 31.782 28.0729 31.7543 27.9598 31.7061C27.7421 31.6134 27.5507 31.4487 27.4596 31.2303C27.3149 30.8837 27.3802 30.4583 27.6556 30.1829L30.2347 27.6038C30.5958 27.2427 31.2148 27.2427 31.5759 27.6038C31.937 27.9649 31.937 28.5839 31.5759 28.945L28.9968 31.5241C28.7905 31.7304 28.5841 31.782 28.3262 31.782Z" fill="#295282"/>
<path d="M25.4892 28.9451C25.3556 28.9451 25.2358 28.9174 25.1228 28.8692C24.9051 28.7764 24.7137 28.6118 24.6225 28.3934C24.4779 28.0468 24.5432 27.6214 24.8186 27.346L27.3977 24.7669C27.7588 24.4058 28.3778 24.4058 28.7389 24.7669C29.1 25.128 29.1 25.747 28.7389 26.108L26.1598 28.6871C25.9535 28.8935 25.7471 28.9451 25.4892 28.9451Z" fill="#295282"/>
<path d="M6.50695 15.0177C6.37336 15.0177 6.25361 14.99 6.14052 14.9418C5.92287 14.8491 5.73146 14.6844 5.64031 14.466C5.49561 14.1194 5.56096 13.694 5.83636 13.4186L13.4705 5.78448C13.8316 5.4234 14.4506 5.4234 14.8117 5.78448C15.1728 6.14555 15.1728 6.76454 14.8117 7.12562L7.17754 14.7598C6.97121 14.9661 6.76486 15.0177 6.50695 15.0177Z" fill="#295282"/>
<path d="M9.75658 18.2672C9.623 18.2672 9.50324 18.2395 9.39016 18.1913C9.1725 18.0986 8.98109 17.9339 8.88994 17.7156C8.74525 17.369 8.8106 16.9435 9.08599 16.6681L16.7202 9.03399C17.0812 8.67291 17.7002 8.67291 18.0612 9.03399C18.4223 9.39506 18.4223 10.014 18.0612 10.3751L10.4272 18.0093C10.2208 18.2156 10.0145 18.2672 9.75658 18.2672Z" fill="#295282"/>
<path d="M14.3474 19.557C14.2138 19.557 14.0941 19.5293 13.981 19.4812C13.7633 19.3884 13.5928 19.2151 13.4255 19.0478L4.54681 10.1691C4.18573 9.808 4.18573 9.18901 4.54681 8.82793C4.90788 8.46686 5.52692 8.46686 5.88799 8.82793L15.018 17.958C15.3791 18.319 15.3791 18.938 15.018 19.2991C14.8117 19.5054 14.6053 19.557 14.3474 19.557Z" fill="#295282"/>
<path d="M18.6804 15.2242C18.5468 15.2242 18.4271 15.1966 18.314 15.1484C18.0963 15.0556 17.9259 14.8824 17.7586 14.7151L8.87981 5.83631C8.51874 5.47523 8.51874 4.85625 8.87981 4.49517C9.24089 4.1341 9.8598 4.1341 10.2209 4.49517L19.3509 13.6252C19.712 13.9863 19.712 14.6053 19.3509 14.9663C19.1446 15.1727 18.9383 15.2242 18.6804 15.2242Z" fill="#295282"/>
<path d="M13.0578 34C10.9945 34 9.29224 32.2978 9.29224 30.2345C9.29224 28.1712 10.9945 26.469 13.0578 26.469C15.121 26.469 16.8233 28.1712 16.8233 30.2345C16.8233 32.2978 15.121 34 13.0578 34ZM13.0578 28.326C12.0261 28.326 11.1492 29.1513 11.1492 30.2345C11.1492 31.3177 11.9745 32.143 13.0578 32.143C14.141 32.143 14.9663 31.3177 14.9663 30.2345C14.9663 29.1513 14.141 28.326 13.0578 28.326Z" fill="#295282"/>
</svg>
