<svg width="33" height="34" viewBox="0 0 33 34" fill="none" xmlns="http://www.w3.org/2000/svg">
<path d="M20.3524 10.9411C19.7897 10.0861 19.1894 9.18303 18.4734 8.45157C18.3862 8.36304 18.269 8.31601 18.1518 8.31601C18.0346 8.31601 17.9175 8.36028 17.8276 8.4488L1.82161 24.7018C0.666262 25.8748 0.794331 27.5098 1.56002 28.9567C1.86521 29.5348 2.27122 30.0826 2.73717 30.5612C3.20312 31.0398 3.72903 31.452 4.28218 31.7591C5.58739 32.4867 7.02341 32.6112 8.02889 31.5876L24.3209 15.0468C24.4081 14.9583 24.4545 14.8394 24.4545 14.7204C24.4545 14.6019 24.4112 14.4833 24.3246 14.3949C24.324 14.3943 24.3232 14.394 24.3223 14.394C24.3214 14.394 24.3206 14.3936 24.32 14.393C24.1193 14.1892 23.9399 13.9947 23.7828 13.8054C23.423 13.3719 22.9509 13.0261 22.4421 12.7839C21.6295 12.3971 20.8713 11.7296 20.3524 10.9411ZM21.0194 25.0506C20.9836 25.062 20.9567 25.0932 20.9421 25.1279L20.8304 25.3768C20.7704 25.5124 20.6124 25.5733 20.4761 25.5124C20.3665 25.4629 20.2292 25.3938 20.1262 25.4559C19.8207 25.6402 19.5392 25.861 19.2908 26.1155C18.5251 26.8929 18.051 27.969 18.051 29.1586C18.051 30.3482 18.5251 31.4216 19.2908 32.2017C19.3077 32.2189 19.3246 32.236 19.3418 32.2528C19.3709 32.281 19.415 32.2836 19.4543 32.2737C19.5987 32.2377 19.7431 32.3262 19.7786 32.4728C19.7867 32.5116 19.8004 32.5503 19.814 32.589C19.8189 32.6027 19.8244 32.6164 19.8299 32.6301C19.843 32.6627 19.8646 32.6914 19.8933 32.7116C20.0254 32.8041 20.1876 32.6673 20.1413 32.5128C19.8004 31.3746 19.7192 29.9444 19.9257 28.5721C20.1104 27.3507 20.5227 26.1667 21.1839 25.2616C21.2623 25.1543 21.1703 25.0038 21.0433 25.0431C21.0353 25.0456 21.0274 25.0481 21.0194 25.0506ZM18.8794 30.9098C18.8794 30.7604 18.9993 30.6387 19.1464 30.6387C19.2935 30.6387 19.4134 30.7604 19.4134 30.9098C19.4134 30.9817 19.4189 31.0647 19.4298 31.1449C19.4407 31.2252 19.4543 31.3082 19.4734 31.3746C19.5115 31.5184 19.4243 31.6678 19.2826 31.7065C19.1409 31.7453 18.9938 31.6567 18.9557 31.5129C18.9339 31.4271 18.9148 31.3192 18.9012 31.2141C18.8875 31.1034 18.8794 30.9955 18.8794 30.9098ZM18.784 29.2831C18.7976 29.1337 18.9257 29.0231 19.0728 29.0369C19.22 29.0507 19.329 29.1807 19.3153 29.3301C19.3126 29.3633 19.3153 29.4463 19.3208 29.5431C19.3262 29.6566 19.3399 29.7783 19.3508 29.8641C19.3698 30.0134 19.269 30.149 19.1219 30.1711C18.9747 30.1905 18.8412 30.0881 18.8194 29.9388C18.8058 29.8419 18.7922 29.7008 18.784 29.5763C18.7813 29.4602 18.7785 29.3495 18.784 29.2831ZM19.0565 27.5707C19.0973 27.4268 19.2445 27.3438 19.3862 27.3825C19.5279 27.424 19.6096 27.5734 19.5715 27.7173C19.5606 27.756 19.5442 27.8335 19.5279 27.922L19.5252 27.9303C19.5061 28.0354 19.487 28.1544 19.4734 28.2374C19.4516 28.3868 19.3153 28.4891 19.1709 28.467C19.0238 28.4449 18.923 28.3065 18.9448 28.1599C18.9557 28.0797 18.9775 27.9524 19.002 27.8307L19.0047 27.8224C19.0238 27.7173 19.0429 27.6232 19.0565 27.5707ZM19.6587 26.0491C19.7186 25.9135 19.8767 25.8527 20.0129 25.9135C20.1464 25.9744 20.2064 26.1349 20.1464 26.2732L19.9421 26.7296C19.8821 26.8652 19.7241 26.9261 19.5878 26.8652C19.4543 26.8043 19.3944 26.6439 19.4543 26.5056L19.6587 26.0491ZM21.3316 33.3485C21.5133 33.3914 21.6974 33.2189 21.8822 33.1921C22.0293 33.17 22.1656 33.2724 22.1846 33.4217C22.1897 33.4423 22.2053 33.4577 22.2265 33.4577C22.2468 33.4577 22.2666 33.4577 22.2855 33.4577C23.4544 33.4577 24.5144 32.9763 25.2828 32.199C26.0485 31.4216 26.5226 30.3454 26.5226 29.1558C26.5226 27.969 26.0485 26.8929 25.2828 26.1127C24.7553 25.5772 24.0926 25.1842 23.3488 24.9889C23.3049 24.9774 23.259 24.9972 23.2364 25.0366C23.1629 25.1666 22.9994 25.2109 22.8713 25.1362C22.7239 25.0481 22.6023 24.8596 22.4308 24.8537C22.4238 24.8534 22.4168 24.8532 22.4097 24.853C22.3312 24.8507 22.2546 24.878 22.1955 24.93C21.2431 25.7682 20.6734 27.1724 20.4516 28.6468C20.2055 30.2828 20.383 31.9863 20.9374 33.0964C20.992 33.2058 21.091 33.2858 21.2091 33.3175C21.2499 33.3285 21.2907 33.3388 21.3316 33.3485ZM20.9884 32.0745C20.9666 31.9251 21.0674 31.7868 21.2146 31.7674C21.3617 31.748 21.498 31.8476 21.517 31.997C21.5252 32.0579 21.5416 32.1215 21.5606 32.1851C21.5824 32.2571 21.6124 32.3345 21.6451 32.4064C21.7078 32.542 21.6478 32.7025 21.5143 32.7661C21.3808 32.8297 21.2228 32.7689 21.1601 32.6333C21.1219 32.5475 21.0838 32.4507 21.0511 32.3484C21.0238 32.2543 20.9993 32.1602 20.9884 32.0745ZM20.7704 30.3565C20.784 30.2071 20.9148 30.0992 21.062 30.113C21.2091 30.1269 21.3154 30.2597 21.3018 30.4091C21.2963 30.4755 21.2936 30.5612 21.2963 30.647C21.2991 30.73 21.3072 30.813 21.3181 30.8794C21.3426 31.026 21.2418 31.1671 21.0974 31.1892C20.953 31.2141 20.814 31.1117 20.7922 30.9651C20.7786 30.8766 20.7677 30.7687 20.765 30.6608C20.7595 30.5529 20.7595 30.445 20.7704 30.3565ZM20.8276 28.727C20.8549 28.5804 20.9966 28.4836 21.141 28.5113C21.2854 28.5389 21.3808 28.6828 21.3535 28.8294C21.3454 28.8654 21.3426 28.9484 21.3372 29.0397C21.3345 29.1531 21.3317 29.2776 21.3372 29.3633C21.3426 29.5127 21.2282 29.64 21.0811 29.6455C20.9339 29.651 20.8086 29.5349 20.8031 29.3855C20.8004 29.2886 20.8004 29.1475 20.8031 29.0231C20.8086 28.9013 20.8167 28.7879 20.8276 28.727ZM21.2636 27.0506C21.3181 26.9122 21.4734 26.8431 21.6097 26.8956C21.7459 26.951 21.8141 27.1087 21.7623 27.247C21.7487 27.2857 21.7241 27.3604 21.6996 27.4462C21.6696 27.5541 21.6369 27.6758 21.6151 27.756C21.5797 27.9026 21.4353 27.9912 21.2909 27.9552C21.1465 27.9192 21.0593 27.7726 21.0947 27.626C21.1165 27.5402 21.1492 27.4102 21.1846 27.294C21.2146 27.1916 21.2446 27.1004 21.2636 27.0506ZM22.0075 25.5926C22.0811 25.4626 22.2446 25.4183 22.3727 25.493C22.5007 25.5677 22.5443 25.7337 22.4707 25.8637L22.2255 26.2981C22.1519 26.4281 21.9884 26.4724 21.8604 26.3977C21.7323 26.323 21.6887 26.157 21.7623 26.027L22.0075 25.5926ZM20.8146 33.7658C20.8015 33.7615 20.7877 33.7585 20.7746 33.7543C20.7564 33.7485 20.7395 33.7395 20.7215 33.7332C20.0348 33.4915 19.4177 33.0941 18.9148 32.5807C18.051 31.7038 17.5169 30.492 17.5169 29.1531C17.5169 27.8141 18.051 26.6024 18.9148 25.7254C19.7786 24.8484 20.9721 24.3062 22.2909 24.3062C23.6097 24.3062 24.8032 24.8484 25.667 25.7254C26.5308 26.6024 27.0649 27.8141 27.0649 29.1531C27.0649 30.492 26.5308 31.7038 25.667 32.5807C24.8032 33.4577 23.6097 33.9999 22.2909 33.9999C21.775 34.0027 21.2803 33.9193 20.8146 33.7658ZM17.4679 18.3389C17.6559 18.1481 17.9611 18.1481 18.1464 18.3389C18.3317 18.5298 18.3344 18.8397 18.1464 19.0278L8.54661 28.7741C8.3586 28.965 8.05341 28.965 7.86812 28.7741C7.6801 28.5832 7.6801 28.2733 7.86812 28.0852L17.4679 18.3389ZM30.0187 0.196419L32.4547 2.66964C32.5801 2.7969 32.64 2.96289 32.64 3.12611C32.64 3.2921 32.5773 3.45809 32.4547 3.58258L30.1041 5.96907C30.1035 5.9697 30.1026 5.97005 30.1018 5.97005C30.1009 5.97005 30.1001 5.9704 30.0995 5.97102C29.9742 6.09761 29.8139 6.15817 29.6535 6.15817C29.4714 6.15817 29.2711 6.17139 29.1414 6.29931C28.7778 6.65791 28.3802 7.04285 27.975 7.43351C26.7188 8.64799 25.3918 9.93163 24.4327 11.0936C24.0457 11.5639 23.9149 11.9346 23.9994 12.2831C24.0948 12.687 24.449 13.1352 25.0022 13.6968C25.2774 13.979 25.4163 14.3469 25.4163 14.7121C25.4163 15.08 25.2774 15.4507 25.0022 15.7302L8.71011 32.2709C7.34767 33.6569 5.48385 33.5324 3.82167 32.6056C3.1895 32.2543 2.5873 31.784 2.05595 31.2362C1.5246 30.6912 1.06409 30.066 0.71531 29.4104C-0.241123 27.6039 -0.369192 25.5373 1.14312 24.0019L17.1454 7.75539C17.146 7.75477 17.1468 7.75442 17.1477 7.75442C17.1486 7.75442 17.1494 7.75407 17.15 7.75345C17.4251 7.47468 17.7871 7.33392 18.1491 7.33392C18.5115 7.33392 18.8739 7.47501 19.1518 7.75442C19.6914 8.30218 20.1328 8.64522 20.5334 8.73928C20.8849 8.82228 21.2527 8.69779 21.6996 8.33261C22.825 7.41414 24.1574 5.98941 25.3864 4.67534C25.7522 4.28357 26.1107 3.90108 26.4394 3.55516C26.5671 3.42082 26.5826 3.21738 26.5826 3.03205C26.5826 2.86606 26.6453 2.70008 26.7679 2.57558L29.1185 0.189091C29.1191 0.18847 29.1199 0.18812 29.1208 0.18812C29.1217 0.18812 29.1225 0.187767 29.1231 0.187147C29.2483 0.060552 29.4087 0 29.5718 0C29.7326 0.00829941 29.896 0.0719283 30.0187 0.196419Z" fill="#00224A"/>
</svg>
