<svg width="34" height="34" viewBox="0 0 34 34" fill="none" xmlns="http://www.w3.org/2000/svg">
<path fill-rule="evenodd" clip-rule="evenodd" d="M17 0C21.6955 0 25.9455 1.90365 29.0195 4.98047C32.0964 8.05729 34 12.3073 34 17C34 21.6955 32.0964 25.9455 29.0195 29.0195C25.9427 32.0964 21.6927 34 17 34C12.3073 34 8.05453 32.0964 4.98047 29.0195C1.90365 25.9455 0 21.6955 0 17C0 12.3045 1.90365 8.05453 4.98047 4.98047C8.05453 1.90365 12.3045 0 17 0ZM21.2351 32.4031C21.2464 32.4 21.2487 32.3851 21.239 32.3786C21.234 32.3753 21.2318 32.3691 21.2335 32.3634L22.3338 28.6759C22.8326 27.0043 22.4242 25.1936 21.256 23.898L20.6767 23.2555C19.739 22.2155 18.4059 21.6164 17.0057 21.6038C15.4701 21.5901 14.0108 22.2827 13.0521 23.4824L12.5293 24.1368C11.5063 25.417 11.1756 27.1173 11.6442 28.6876L12.7353 32.3443C12.7375 32.3515 12.7347 32.3593 12.7284 32.3634C12.7163 32.3716 12.7192 32.3902 12.7333 32.3941C14.0922 32.7695 15.5216 32.9707 17 32.9707C18.4671 32.9707 19.8878 32.7743 21.2351 32.4031ZM2.13945 22.8629C2.77455 24.4716 4.43312 25.353 6.16259 25.3615L7.69476 25.3691C9.22392 25.3766 10.6725 24.684 11.6266 23.489L12.0395 22.9719C13.0356 21.7244 13.3372 20.0595 12.842 18.5419C12.421 17.2516 11.4674 16.2036 10.2224 15.6631L8.87575 15.0784C7.25086 14.3729 5.37398 14.5798 3.94182 15.6224L3.21834 16.149C1.86179 17.1365 1.03545 18.7523 1.39008 20.3923C1.57403 21.243 1.82581 22.0685 2.13945 22.8629ZM5.7054 5.70817C5.00671 6.40686 4.8301 7.45247 5.14333 8.38961L5.98137 10.8969C6.43093 12.242 7.43049 13.3328 8.73121 13.8979L9.50308 14.2332C11.176 14.96 13.1121 14.7171 14.5536 13.5995C15.774 12.6534 16.4881 11.1961 16.4881 9.65202V8.40237C16.4881 6.76794 15.6893 5.23669 14.3488 4.30157L13.3978 3.63819C12.0298 2.6839 10.246 2.42746 8.81458 3.28361C7.67945 3.96252 6.63533 4.77825 5.7054 5.70817ZM25.0352 3.19354C23.5833 2.34623 21.7879 2.63487 20.429 3.62453L19.5712 4.24922C18.279 5.19027 17.5146 6.69245 17.5146 8.291V9.78405C17.5146 11.2394 18.1888 12.6126 19.3401 13.5028C20.6898 14.5462 22.4989 14.7765 24.067 14.1043L25.223 13.6088C26.5345 13.0467 27.5433 11.951 27.9955 10.5976L28.8106 8.15783C29.0971 7.30042 28.9311 6.34463 28.2918 5.7054C27.3221 4.73572 26.2279 3.88955 25.0352 3.19354ZM32.9511 17.8125C32.9512 17.8105 32.9491 17.8091 32.9473 17.81C32.9464 17.8104 32.9453 17.8103 32.9445 17.8098L29.7164 15.459C28.291 14.421 26.4242 14.2105 24.8035 14.9051L23.9904 15.2536C22.6832 15.8138 21.6765 16.9041 21.2221 18.2516L21.1888 18.3503C20.6113 20.0627 21.0029 21.9536 22.213 23.2959L24.0529 25.3368C24.0805 25.3643 24.1108 25.3947 24.1498 25.3945L28.6527 25.3736C29.8717 25.3679 31.0281 24.7439 31.534 23.6348C32.3497 21.8463 32.8469 19.8815 32.9511 17.8125Z" fill="#00224A"/>
</svg>
