<svg width="34" height="34" viewBox="0 0 34 34" fill="none" xmlns="http://www.w3.org/2000/svg">
<path fill-rule="evenodd" clip-rule="evenodd" d="M1.58246 24.1097C2.38758 23.3037 3.69381 23.3037 4.49894 24.1097L9.83398 29.45C10.7038 30.3207 10.7038 31.7315 9.83398 32.6022C5.11232 36.7206 -3.30535 31.0678 1.36859 24.3636C1.4312 24.2737 1.50508 24.1871 1.58246 24.1097ZM6.5529 19.7545C6.27676 20.3436 6.3991 21.0425 6.8589 21.5028C7.51397 22.1585 8.59488 22.0942 9.16754 21.3654L19.8797 7.73285C19.9066 7.6986 19.931 7.66226 19.9589 7.62877L19.9782 7.60661C20.0917 7.4515 20.2079 7.30746 20.3297 7.17451C21.3839 5.73693 21.4005 4.23287 20.8471 3.03905C20.5815 2.46568 20.1858 1.96432 19.7126 1.57377C19.2422 1.18598 18.6943 0.911763 18.1215 0.792657C17.0519 0.568864 15.8821 0.893766 14.946 2.0439C14.7743 2.25479 14.6434 2.49522 14.5279 2.74143L6.5529 19.7545ZM9.55294 22.1016C9.02642 22.7718 9.08345 23.7296 9.68575 24.3325C10.2906 24.9379 11.2533 24.9935 11.9238 24.4618L25.8528 13.4151C25.8787 13.3944 25.9057 13.3744 25.9272 13.3492C27.2263 11.8227 27.284 10.183 26.683 8.89739C26.4146 8.32125 26.0133 7.81713 25.5319 7.42103C25.0559 7.03047 24.5025 6.75348 23.9242 6.62884C22.9059 6.41279 21.8018 6.68424 20.8942 7.6814C20.7945 7.81436 20.6866 7.94454 20.5732 8.0775C20.5372 8.12735 20.5012 8.17721 20.468 8.22707C20.4258 8.28514 20.3709 8.33313 20.3266 8.38957L9.55294 22.1016ZM12.6807 24.8342C11.9394 25.4222 11.8758 26.5247 12.5445 27.1941C13.0126 27.6627 13.7229 27.7904 14.325 27.5143L31.2494 19.7525C31.5104 19.6328 31.7652 19.4958 31.9864 19.3127C33.1347 18.362 33.4425 17.1526 33.1996 16.0382C33.0695 15.4427 32.7817 14.8693 32.3832 14.3763C31.982 13.8804 31.4673 13.4677 30.8862 13.188C29.5722 12.5593 27.893 12.6284 26.352 14.0235C26.3513 14.0241 26.3504 14.0245 26.3495 14.0245C26.3486 14.0245 26.3478 14.0248 26.3471 14.0253C26.3342 14.0358 26.3236 14.0462 26.3107 14.0542C26.3099 14.0547 26.3089 14.0549 26.3079 14.0549C26.3071 14.0549 26.3063 14.0551 26.3055 14.0555L26.3029 14.0568C26.3017 14.0574 26.3006 14.0582 26.2997 14.0591C26.2988 14.06 26.2978 14.0608 26.2966 14.0614L26.2941 14.0626C26.2932 14.063 26.2923 14.0633 26.2914 14.0633C26.2905 14.0633 26.2896 14.0635 26.2888 14.0639L26.2868 14.0649C26.2853 14.0656 26.2839 14.0666 26.2827 14.0678L26.2817 14.0688L26.2808 14.0698C26.2796 14.071 26.2782 14.0719 26.2767 14.0727L26.2747 14.0737C26.2739 14.0741 26.273 14.0743 26.2721 14.0743C26.2712 14.0743 26.2703 14.0745 26.2694 14.075L26.2664 14.0765C26.2656 14.0769 26.2647 14.0771 26.2638 14.0771C26.2629 14.0771 26.262 14.0773 26.2611 14.0777L26.2581 14.0793C26.2573 14.0797 26.2564 14.0799 26.2555 14.0799C26.2545 14.0799 26.2537 14.0801 26.2528 14.0805L26.25 14.0819C26.249 14.0824 26.248 14.0826 26.2469 14.0826C26.2462 14.0826 26.2454 14.0828 26.2447 14.083C26.2412 14.0842 26.2382 14.0854 26.2351 14.0866C26.2276 14.0896 26.2204 14.0935 26.214 14.0986L12.6807 24.8342ZM13.7395 28.607C13.5513 28.6933 13.3856 28.8219 13.2553 28.9828C12.7533 29.6026 11.825 29.6511 11.2612 29.0869L5.07659 22.8981C4.42736 22.2485 4.47164 21.1828 5.17254 20.5892C5.34499 20.4431 5.48389 20.2616 5.57977 20.057L14.0262 2.0308C14.0345 2.00587 14.0455 1.98094 14.0621 1.95879C14.0732 1.9394 14.0843 1.92278 14.0953 1.90893C15.2382 0.252526 16.7822 -0.212817 18.2018 0.0835623C18.9018 0.230367 19.5687 0.562755 20.1387 1.03087C20.706 1.49621 21.1819 2.10005 21.4974 2.78422C21.651 3.11453 21.7683 3.4642 21.8425 3.82731C22.0238 4.71433 23.1241 5.7355 24.0099 5.92251C24.7128 6.07209 25.3852 6.40725 25.9608 6.8809C26.5336 7.34901 27.0095 7.95562 27.3333 8.64256C27.3405 8.65796 27.3476 8.67341 27.3546 8.6889C27.931 9.95576 29.8846 11.9379 31.1408 12.537C31.8354 12.8694 32.4469 13.3625 32.9228 13.9497C33.4016 14.5397 33.7447 15.2266 33.9024 15.9468C34.2127 17.3595 33.8099 18.8828 32.3065 20.0262C32.2297 20.0845 32.1633 20.1603 32.0761 20.2014L32.0401 20.218C32.018 20.2318 31.9931 20.2429 31.9682 20.2512L13.7395 28.607Z" fill="#00224A"/>
</svg>
