<svg width="43" height="33" viewBox="0 0 43 33" fill="none" xmlns="http://www.w3.org/2000/svg">
<path d="M7.87245 17.4243C7.41701 17.4243 6.96161 17.1641 6.76642 16.7086C6.50617 16.1231 6.76636 15.4074 7.35192 15.1471L17.273 10.759C17.4238 10.6923 17.6318 10.6275 17.6318 10.4626C17.6318 10.336 17.5903 10.2129 17.5136 10.1121L16.5909 8.90111C16.3957 8.70593 16.1354 8.57579 15.8752 8.64086L8.1328 10.5277C7.48217 10.6578 6.83142 10.2674 6.70129 9.68186C6.57117 9.03124 6.96158 8.38061 7.54714 8.25049L15.2897 6.36367C16.4608 6.03835 17.762 6.4938 18.4777 7.46974L19.5188 8.83605C19.9742 9.48667 20.1693 10.2674 19.9742 11.0482C19.779 11.8289 19.2584 12.4795 18.4777 12.8049L8.32786 17.2942C8.19773 17.3593 8.00258 17.4243 7.87245 17.4243Z" fill="#00224A"/>
<path d="M29.3432 15.4723C28.7576 15.4723 28.3021 15.0819 28.172 14.4963C27.7166 11.8938 24.9841 8.25031 20.4947 4.15137C18.8682 2.65493 16.5909 2.06936 14.3788 2.45974L6.37602 4.0863C5.72539 4.21643 5.13992 3.82606 5.0098 3.17543C4.87967 2.5248 5.26999 1.93924 5.92061 1.80911L13.9233 0.182547C16.8512 -0.403017 19.9091 0.442803 22.0562 2.39468C25.5045 5.51769 29.7986 10.0721 30.4492 14.1059C30.5664 14.6919 30.2086 15.2251 29.6611 15.4203C29.539 15.4639 29.4079 15.4723 29.2782 15.4723H29.3432Z" fill="#00224A"/>
<path d="M36.7605 12.4794C33.9628 12.4794 31.6855 10.2022 31.6855 7.40448C31.6855 4.60678 33.9628 2.32959 36.7605 2.32959C39.5582 2.32959 41.8352 4.60678 41.8352 7.40448C41.8352 10.2022 39.5582 12.4794 36.7605 12.4794ZM36.7605 4.67185C35.264 4.67185 34.0277 5.90804 34.0277 7.40448C34.0277 8.90092 35.264 10.1371 36.7605 10.1371C38.2569 10.1371 39.4931 8.90092 39.4931 7.40448C39.4931 5.90804 38.2569 4.67185 36.7605 4.67185Z" fill="#00224A"/>
<path d="M36.6952 24.8413C35.0687 24.8413 34.2229 24.3208 33.5072 23.8653C32.9217 23.54 32.5312 23.2798 31.6203 23.2798C30.7095 23.2798 30.2541 23.54 29.7336 23.8653C29.0179 24.3208 28.172 24.8413 26.5454 24.8413C24.9189 24.8413 24.0731 24.3208 23.3574 23.8653C22.7718 23.54 22.3815 23.2798 21.4707 23.2798C20.5598 23.2798 20.1042 23.54 19.5837 23.8653C18.8681 24.3208 18.0223 24.8413 16.3957 24.8413C14.7692 24.8413 13.9233 24.3208 13.2076 23.8653C12.622 23.54 12.2317 23.2798 11.3208 23.2798C10.41 23.2798 9.95458 23.54 9.43408 23.8653C8.71839 24.3208 7.87248 24.8413 6.24591 24.8413C4.61935 24.8413 3.7736 24.3208 3.05791 23.8653C2.47235 23.54 2.08188 23.2798 1.171 23.2798C0.260123 23.2798 0 22.7593 0 22.1086C0 21.458 0.520374 20.9375 1.171 20.9375C2.79756 20.9375 3.64347 21.458 4.35916 21.9134C4.94473 22.2388 5.33504 22.499 6.24591 22.499C7.15679 22.499 7.61232 22.2388 8.13283 21.9134C8.84851 21.458 9.69426 20.9375 11.3208 20.9375C12.9474 20.9375 13.7931 21.458 14.5088 21.9134C15.0944 22.2388 15.4849 22.499 16.3957 22.499C17.3066 22.499 17.762 22.2388 18.2825 21.9134C18.9982 21.458 19.8441 20.9375 21.4707 20.9375C23.0972 20.9375 23.943 21.458 24.6587 21.9134C25.2442 22.2388 25.6345 22.499 26.5454 22.499C27.4563 22.499 27.9118 22.2388 28.4323 21.9134C29.148 21.458 29.9938 20.9375 31.6203 20.9375C33.2469 20.9375 34.0928 21.458 34.8085 21.9134C35.3941 22.2388 35.7844 22.499 36.6952 22.499C37.6061 22.499 38.0615 22.2388 38.582 21.9134C39.2977 21.458 40.1436 20.9375 41.7702 20.9375C43.3967 20.9375 42.9413 21.458 42.9413 22.1086C42.9413 22.7593 42.4208 23.2798 41.7702 23.2798C40.8593 23.2798 40.4038 23.54 39.8833 23.8653C39.1676 24.3208 38.3218 24.8413 36.6952 24.8413Z" fill="#00224A"/>
<path d="M36.6952 32.6489C35.0687 32.6489 34.2229 32.1284 33.5072 31.6729C32.9217 31.3476 32.5312 31.0874 31.6203 31.0874C30.7095 31.0874 30.2541 31.3476 29.7336 31.6729C29.0179 32.1284 28.172 32.6489 26.5454 32.6489C24.9189 32.6489 24.0731 32.1284 23.3574 31.6729C22.7718 31.3476 22.3815 31.0874 21.4707 31.0874C20.5598 31.0874 20.1042 31.3476 19.5837 31.6729C18.8681 32.1284 18.0223 32.6489 16.3957 32.6489C14.7692 32.6489 13.9233 32.1284 13.2076 31.6729C12.622 31.3476 12.2317 31.0874 11.3208 31.0874C10.41 31.0874 9.95458 31.3476 9.43408 31.6729C8.71839 32.1284 7.87248 32.6489 6.24591 32.6489C4.61935 32.6489 3.7736 32.1284 3.05791 31.6729C2.47235 31.3476 2.08188 31.0874 1.171 31.0874C0.260123 31.0874 0 30.5669 0 29.9163C0 29.2656 0.520374 28.7451 1.171 28.7451C2.79756 28.7451 3.64347 29.2656 4.35916 29.7211C4.94473 30.0464 5.33504 30.3066 6.24591 30.3066C7.15679 30.3066 7.61232 30.0464 8.13283 29.7211C8.84851 29.2656 9.69426 28.7451 11.3208 28.7451C12.9474 28.7451 13.7931 29.2656 14.5088 29.7211C15.0944 30.0464 15.4849 30.3066 16.3957 30.3066C17.3066 30.3066 17.762 30.0464 18.2825 29.7211C18.9982 29.2656 19.8441 28.7451 21.4707 28.7451C23.0972 28.7451 23.943 29.2656 24.6587 29.7211C25.2442 30.0464 25.6345 30.3066 26.5454 30.3066C27.4563 30.3066 27.9118 30.0464 28.4323 29.7211C29.148 29.2656 29.9938 28.7451 31.6203 28.7451C33.2469 28.7451 34.0928 29.2656 34.8085 29.7211C35.3941 30.0464 35.7844 30.3066 36.6952 30.3066C37.6061 30.3066 38.0615 30.0464 38.582 29.7211C39.2977 29.2656 40.1436 28.7451 41.7702 28.7451C43.3967 28.7451 42.9413 29.2656 42.9413 29.9163C42.9413 30.5669 42.4208 31.0874 41.7702 31.0874C40.8593 31.0874 40.4038 31.3476 39.8833 31.6729C39.1676 32.1284 38.3218 32.6489 36.6952 32.6489Z" fill="#00224A"/>
</svg>
