<svg width="34" height="34" viewBox="0 0 34 34" fill="none" xmlns="http://www.w3.org/2000/svg">
<path fill-rule="evenodd" clip-rule="evenodd" d="M22.2159 4.96959C16.0294 0.13005 7.29847 0.639185 2.72719 6.10961C-1.84695 11.5856 -0.531886 19.9503 5.6575 24.7982C6.61413 25.5474 7.63311 26.1676 8.68823 26.661C10.2717 27.4015 12.0994 26.8753 13.3555 25.6595L25.0672 14.3239C26.422 13.0127 26.9861 11.0105 26.0503 9.37367C25.1175 7.74215 23.8341 6.23681 22.2159 4.96959ZM29.7947 0C27.4733 0 25.5893 1.82071 25.5893 4.07031C25.5893 6.31714 27.4733 8.14062 29.7947 8.14062C32.116 8.14062 34 6.31714 34 4.07031C33.9971 1.82071 32.116 0 29.7947 0ZM16.0977 26.9205C15.6419 27.3617 15.9468 28.1112 16.5783 28.0494C19.0626 27.8059 20.7893 26.76 23.308 27.8917C25.4464 28.8519 26.4784 30.8773 28.4024 33.0107C29.3344 34.0456 29.4859 34.2171 30.8896 33.7634C32.7393 33.1629 33.5683 31.9316 33.7456 30.3018C33.8999 28.8878 33.3625 28.8048 32.2247 28.0024C30.4665 26.7572 29.0256 25.8109 28.0936 24.7152C25.8151 22.0394 27.742 19.4799 27.8592 16.5524C27.8759 16.1592 27.4093 15.9697 27.1265 16.2434L16.0977 26.9205Z" fill="#00224A"/>
</svg>
