<svg width="36" height="34" viewBox="0 0 36 34" fill="none" xmlns="http://www.w3.org/2000/svg">
<path d="M32.2798 2.74339C34.432 4.82742 35.3391 7.7128 35.0655 10.6894C35.0283 11.0949 34.9692 11.5016 34.8884 11.9082C34.8008 12.3484 34.2855 12.5306 33.8905 12.3175C33.6303 12.1771 33.361 12.0525 33.0843 11.9444C33.0261 11.9217 33.0121 11.8471 33.0693 11.8219C33.0979 11.8094 33.1214 11.7857 33.1279 11.7552C33.2152 11.3502 33.2783 10.9454 33.3148 10.543C33.3655 9.99013 32.7224 9.72817 32.3234 10.1143L31.9414 10.4841C31.8203 10.6012 31.8203 10.7953 31.9413 10.9125C32.173 11.1368 31.9102 11.5881 31.5919 11.5365C31.5868 11.5357 31.5816 11.5349 31.5764 11.5341C31.514 11.5241 31.4559 11.4957 31.4104 11.4517L31.3424 11.3858C31.25 11.2963 31.1032 11.2963 31.0107 11.3858C30.9619 11.4331 30.8952 11.4571 30.8274 11.4531C30.6857 11.445 30.5427 11.4411 30.3989 11.4411C30.2114 11.4411 30.1087 11.206 30.2434 11.0755L30.4187 10.9058C30.5359 10.7923 30.5359 10.6043 30.4186 10.4908L29.9938 10.0797C29.6599 9.75652 29.1298 9.75659 28.796 10.0798L27.9359 10.9126C27.8089 11.0356 27.8089 11.2393 27.9358 11.3623C28.1081 11.5293 28.0366 11.8222 27.8118 11.9064C27.7811 11.9179 27.7504 11.9296 27.7199 11.9415C27.6025 11.9873 27.4685 11.9628 27.378 11.8752C27.2563 11.7573 27.0629 11.7573 26.9412 11.8752L25.4786 13.2921C25.4731 13.2974 25.4731 13.3062 25.4786 13.3115C25.4842 13.3169 25.4841 13.326 25.4783 13.3312C25.3007 13.4928 25.1314 13.663 24.971 13.8419C24.9628 13.851 24.9487 13.8514 24.94 13.8428C24.9317 13.8346 24.9184 13.8345 24.91 13.8426L23.5118 15.1959C23.3595 15.3433 23.3595 15.5876 23.5118 15.7351L23.5225 15.7455C23.625 15.8447 23.6572 15.9946 23.6094 16.129C23.5186 16.3841 23.1897 16.4765 22.9952 16.2881L22.9568 16.251C22.808 16.1069 22.5716 16.1069 22.4228 16.251L21.6375 17.0114C21.2881 17.3497 21.288 17.91 21.6373 18.2484L21.9675 18.5683C22.1173 18.7135 22.3553 18.7135 22.5052 18.5684L22.855 18.2297C22.9892 18.0998 23.2193 18.2057 23.2193 18.3924C23.2193 18.4999 23.2219 18.6066 23.2269 18.7125C23.2328 18.8385 23.1866 18.9619 23.096 19.0496C22.9234 19.2167 22.9234 19.4935 23.096 19.6605L23.265 19.8242C23.3545 19.9109 23.4166 20.0216 23.4487 20.142C23.4766 20.246 23.5068 20.3491 23.5395 20.4512C23.8999 21.5791 23.4434 22.9837 22.2637 23.0854C21.0454 23.1907 19.8426 23.1158 18.6998 22.858C18.5111 22.8155 18.3152 22.8491 18.1258 22.8886C16.5269 23.2277 14.9969 23.7839 13.5302 24.5274C12.994 24.7998 12.4648 25.0975 11.9421 25.4193C11.6261 25.6138 11.3392 25.8514 11.08 26.1169L3.57322 33.8044C3.31517 34.0686 2.87079 34.0618 2.60571 33.8044L0.201724 31.4767C-0.0626516 31.22 -0.0717922 30.7904 0.201724 30.5405L8.1344 23.2779C8.41102 23.0246 8.66022 22.7423 8.86578 22.4286C9.19178 21.9312 9.49433 21.4265 9.77127 20.9155C10.5433 19.4933 11.1185 18.0193 11.4693 16.4894C11.514 16.2935 11.5546 16.0895 11.5075 15.8941C11.2411 14.7876 11.1636 13.6219 11.2717 12.4426C11.541 9.51701 12.9536 6.49955 15.4448 4.08736C17.9367 1.6738 21.0522 0.306002 24.0743 0.0459236C27.1483 -0.218921 30.1275 0.659355 32.2798 2.74339ZM30.3989 12.9688C31.624 12.9688 32.7575 13.3503 33.6795 13.9967C33.946 14.1836 33.9348 14.5678 33.7064 14.7996C32.7968 15.7233 32.2336 16.9987 32.2334 18.4056C32.2334 18.4062 32.2329 18.4067 32.2323 18.4067C32.2317 18.4067 32.2312 18.4071 32.2312 18.4077V18.409C32.2312 18.4096 32.2317 18.4101 32.2323 18.4101C32.2329 18.4101 32.2334 18.4105 32.2334 18.4111C32.2336 19.8194 32.7968 21.0955 33.7071 22.0192C33.9246 22.2416 33.9344 22.6088 33.6797 22.7875C32.7573 23.4343 31.624 23.8166 30.3989 23.8166C29.1729 23.8166 28.0393 23.4346 27.1167 22.7868C26.8623 22.6082 26.8721 22.2409 27.09 22.0192C28.0002 21.0956 28.5634 19.8189 28.5637 18.4115C28.5637 18.4107 28.5644 18.4101 28.5651 18.4101C28.5659 18.4101 28.5665 18.4094 28.5665 18.4087V18.4081C28.5665 18.4073 28.5659 18.4067 28.5651 18.4067C28.5644 18.4067 28.5637 18.406 28.5637 18.4053C28.5634 16.9985 28.0002 15.7232 27.0914 14.7996C26.8627 14.5678 26.8514 14.1833 27.118 13.9964C28.0401 13.3502 29.1739 12.9688 30.3989 12.9688ZM34.4834 15.5158C34.6946 15.3012 35.0432 15.346 35.2021 15.6019C35.7084 16.4176 36 17.3721 36 18.3924C36 19.4298 35.6982 20.3992 35.1764 21.2229C35.0216 21.4674 34.6869 21.5093 34.4841 21.3029C33.7559 20.5639 33.3046 19.5411 33.3042 18.4115C33.3042 18.4107 33.3048 18.4101 33.3056 18.4101C33.3064 18.4101 33.307 18.4094 33.307 18.4087V18.4077C33.307 18.4071 33.3066 18.4067 33.306 18.4067C33.3054 18.4067 33.3049 18.4062 33.3049 18.4056C33.3052 17.2772 33.7558 16.255 34.4834 15.5158ZM25.9228 21.6509C25.9228 21.6511 25.9226 21.6512 25.9224 21.6511C25.2167 20.7443 24.7978 19.6156 24.7978 18.3924C24.7978 17.3719 25.0894 16.4169 25.5959 15.6014C25.7547 15.3455 26.1031 15.3006 26.3137 15.5158C27.0412 16.255 27.4919 17.2772 27.4929 18.4056C27.4929 18.4062 27.4924 18.4067 27.4918 18.4067C27.4912 18.4067 27.4908 18.4071 27.4908 18.4077V18.409C27.4908 18.4096 27.4912 18.4101 27.4918 18.4101C27.4924 18.4101 27.4929 18.4105 27.4929 18.4111C27.4926 19.5416 27.0412 20.5645 26.313 21.3036C26.1914 21.4268 26.0599 21.5439 25.9229 21.6508C25.9228 21.6508 25.9228 21.6509 25.9228 21.6509ZM18.1739 20.9257C18.4425 21.0166 18.6184 20.7073 18.4146 20.5101L18.3995 20.4955C18.2991 20.3983 18.1396 20.3983 18.0391 20.4954C17.9046 20.6255 17.9488 20.8484 18.1257 20.9092C18.1416 20.9147 18.1577 20.9202 18.1739 20.9257ZM17.2923 20.1653C17.5017 19.9623 17.5017 19.6262 17.2922 19.4232L16.8442 18.9892C16.618 18.77 16.2586 18.77 16.0323 18.9891C15.7874 19.2262 15.7961 19.6237 16.0701 19.8264C16.2708 19.9749 16.4791 20.1137 16.6941 20.2422C16.8867 20.3573 17.1312 20.3215 17.2923 20.1653ZM15.4614 18.4886C15.6981 18.2594 15.6982 17.8798 15.4615 17.6506L15.0181 17.221C14.8166 17.0257 14.4965 17.0257 14.295 17.2209C14.1249 17.3855 14.086 17.6454 14.2136 17.8447C14.347 18.0532 14.4913 18.2556 14.6466 18.4515C14.8494 18.7075 15.2268 18.7158 15.4614 18.4886ZM13.921 16.5298C14.0257 16.4284 14.0257 16.2604 13.9211 16.159L13.7989 16.0407C13.6292 15.8762 13.3655 16.0316 13.4437 16.2546C13.4792 16.324 13.5074 16.3971 13.5258 16.4731C13.5284 16.4835 13.5314 16.4938 13.5353 16.5038C13.5896 16.6429 13.7673 16.6786 13.8746 16.5747L13.921 16.5298ZM14.0576 14.0005C13.708 14.3389 13.7079 14.8995 14.0575 15.238C14.3914 15.5614 14.9217 15.5614 15.2557 15.238L15.7092 14.7989C16.0588 14.4604 16.0587 13.8998 15.709 13.5614C15.3751 13.2383 14.8451 13.2383 14.5112 13.5614L14.0576 14.0005ZM15.8392 15.7256C15.4896 16.0641 15.4897 16.6247 15.8393 16.963C16.1732 17.2862 16.7033 17.2861 17.0371 16.9629L17.491 16.5234C17.8405 16.1849 17.8404 15.6243 17.4908 15.286C17.1569 14.9629 16.6268 14.9629 16.293 15.2862L15.8392 15.7256ZM17.6205 17.4512C17.2712 17.7895 17.2712 18.3498 17.6205 18.6881C17.9543 19.0113 18.4844 19.0113 18.8182 18.6881L19.2724 18.2483C19.6217 17.91 19.6217 17.3497 19.2724 17.0114C18.9386 16.6882 18.4085 16.6882 18.0747 17.0114L17.6205 17.4512ZM19.402 19.1754C19.0524 19.5138 19.0525 20.0745 19.4021 20.4129C19.736 20.736 20.2661 20.736 20.5999 20.4128L21.0535 19.9738C21.4032 19.6354 21.4032 19.0747 21.0537 18.7362C20.7197 18.4129 20.1894 18.4129 19.8555 18.7362L19.402 19.1754ZM23.3656 21.1849C23.4248 21.1273 23.4247 21.0321 23.3653 20.9746L22.7074 20.3379C22.4447 20.0838 22.0279 20.0838 21.7653 20.3379L21.7026 20.3985C21.3024 20.786 21.5568 21.4378 22.1118 21.3901C22.5042 21.3566 22.8978 21.3008 23.2921 21.2235C23.3198 21.2181 23.3454 21.2046 23.3656 21.1849ZM14.0636 12.9419C14.3387 12.6755 14.3387 12.2342 14.0636 11.9677L13.4212 11.3457C13.3703 11.2964 13.2893 11.2964 13.2384 11.3457C13.221 11.3612 13.209 11.3818 13.2042 11.4046C13.1201 11.8 13.0587 12.1955 13.0232 12.5889C12.9735 13.1295 13.6037 13.3872 13.9936 13.0096L14.0636 12.9419ZM14.5116 10.1129C14.1625 10.4509 14.1625 11.0109 14.5116 11.349C14.8452 11.6721 15.375 11.6721 15.7086 11.349L16.1635 10.9085C16.5127 10.5704 16.5127 10.0104 16.1635 9.67236C15.8299 9.34933 15.3002 9.34933 14.9666 9.67236L14.5116 10.1129ZM16.293 11.8364C15.9437 12.1747 15.9437 12.735 16.293 13.0732C16.6268 13.3965 17.1569 13.3965 17.4907 13.0732L17.9442 12.6341C18.2935 12.2958 18.2935 11.7355 17.9442 11.3972C17.6104 11.074 17.0803 11.074 16.7465 11.3972L16.293 11.8364ZM18.0744 13.5613C17.7249 13.8997 17.725 14.4603 18.0746 14.7986C18.4085 15.1218 18.9386 15.1217 19.2724 14.7985L19.7259 14.3593C20.0753 14.021 20.0754 13.4607 19.7261 13.1223C19.3922 12.7988 18.8619 12.7988 18.5279 13.1221L18.0744 13.5613ZM19.856 15.2866C19.5068 15.6247 19.5067 16.1847 19.8557 16.523C20.1894 16.8465 20.7198 16.8466 21.0537 16.5232L21.5071 16.084C21.8564 15.7457 21.8562 15.1854 21.5068 14.8473C21.173 14.5243 20.6432 14.5244 20.3095 14.8474L19.856 15.2866ZM14.7919 8.78819C14.9171 8.66697 14.9171 8.46617 14.7919 8.34494C14.648 8.20559 14.4114 8.2382 14.3162 8.41448C14.3036 8.43785 14.2911 8.46125 14.2786 8.48467C14.1022 8.81667 14.4887 9.08182 14.7588 8.82029L14.7919 8.78819ZM15.1566 7.07239C15.0158 7.26825 15.0449 7.53668 15.2182 7.70447C15.4115 7.89165 15.7185 7.89162 15.9118 7.7044L16.8244 6.82034C17.0605 6.59163 17.0604 6.21288 16.8241 5.98432C16.5937 5.76142 16.2254 5.76602 16.0121 6.0053C15.708 6.34636 15.4225 6.70254 15.1566 7.07239ZM16.7469 7.94849C16.3977 8.28658 16.3977 8.84656 16.7469 9.18465C17.0805 9.50768 17.6102 9.50768 17.9438 9.18465L18.3981 8.74483C18.7472 8.40674 18.7472 7.84676 18.3981 7.50867C18.0644 7.18564 17.5347 7.18564 17.2011 7.50867L16.7469 7.94849ZM18.528 9.67179C18.1784 10.0102 18.1784 10.5708 18.5279 10.9092C18.8619 11.2326 19.3922 11.2325 19.7261 10.9091L20.1795 10.4699C20.5289 10.1315 20.5288 9.57117 20.1794 9.23287C19.8456 8.90964 19.3155 8.90959 18.9816 9.23275L18.528 9.67179ZM20.3093 11.3972C19.9599 11.7356 19.9598 12.2959 20.3091 12.6343C20.643 12.9578 21.1733 12.9578 21.5073 12.6345L21.9604 12.1957C22.3098 11.8573 22.3099 11.297 21.9606 10.9586C21.6267 10.6351 21.0964 10.6351 20.7624 10.9584L20.3093 11.3972ZM22.091 13.1225C21.7416 13.4608 21.7416 14.0211 22.091 14.3593C22.4248 14.6826 22.9548 14.6826 23.2886 14.3593L23.7422 13.9202C24.0915 13.5819 24.0915 13.0216 23.7422 12.6833C23.4084 12.3601 22.8783 12.3601 22.5445 12.6833L22.091 13.1225ZM32.2288 9.15306C32.5783 8.81472 32.5783 8.25434 32.229 7.9159C31.8952 7.59245 31.3649 7.59232 31.0308 7.9156L30.5776 8.35432C30.2279 8.69273 30.2279 9.25339 30.5775 9.59187C30.9114 9.91523 31.4417 9.91523 31.7757 9.59187L32.2288 9.15306ZM30.4475 7.42741C30.7967 7.08927 30.7969 6.52924 30.4479 6.19089C30.1141 5.86736 29.5838 5.86721 29.2499 6.19055L28.796 6.63004C28.4467 6.96832 28.4467 7.52862 28.796 7.8669C29.1298 8.19012 29.6599 8.19012 29.9937 7.8669L30.4475 7.42741ZM28.6661 5.70259C29.0155 5.36428 29.0155 4.80392 28.6661 4.46561C28.3323 4.14241 27.8023 4.14235 27.4684 4.46548L27.0145 4.90488C26.665 5.24313 26.6649 5.80349 27.0142 6.14191C27.348 6.46534 27.8783 6.46542 28.2122 6.14208L28.6661 5.70259ZM26.8847 3.97771C27.2343 3.63923 27.2342 3.07858 26.8845 2.7402C26.5506 2.41707 26.0206 2.41709 25.6867 2.74025L25.2331 3.17929C24.8835 3.5177 24.8834 4.07836 25.233 4.41685C25.5669 4.74021 26.0972 4.74021 26.4312 4.41685L26.8847 3.97771ZM28.1142 2.18313C27.83 2.0861 27.6434 2.42207 27.8591 2.63097L27.8748 2.64618C27.9821 2.75006 28.1525 2.75 28.2597 2.64604C28.403 2.5071 28.3561 2.26733 28.1676 2.20157C28.1498 2.19536 28.132 2.18922 28.1142 2.18313ZM29.0142 2.96871C28.7936 3.18209 28.7935 3.53573 29.014 3.74923L29.4266 4.1488C29.6621 4.37677 30.036 4.37669 30.2713 4.14863C30.5265 3.90133 30.5166 3.48673 30.2296 3.27724C30.0399 3.13883 29.8437 3.00898 29.6415 2.88812C29.4395 2.76739 29.1833 2.80512 29.0142 2.96871ZM30.8445 4.64618C30.5972 4.88575 30.5973 5.28237 30.8446 5.52184L31.2466 5.91107C31.4604 6.11804 31.7998 6.11804 32.0135 5.91107C32.1942 5.7361 32.2354 5.45975 32.0986 5.24864C31.9733 5.05529 31.8386 4.86705 31.6942 4.68444C31.4829 4.41714 31.0892 4.40907 30.8445 4.64618ZM32.3835 6.60603C32.2687 6.71722 32.2687 6.90141 32.3836 7.01256L32.4012 7.02962C32.6204 7.2417 32.9559 7.04455 32.851 6.75817C32.8439 6.73879 32.8368 6.71944 32.8295 6.70013C32.7602 6.51538 32.5253 6.46876 32.3835 6.60603ZM28.2121 9.59153C28.5614 9.25322 28.5612 8.69298 28.2118 8.35484C27.8781 8.03185 27.3482 8.03192 27.0146 8.35501L26.561 8.79415C26.2119 9.13226 26.2117 9.69223 26.5607 10.0305C26.8945 10.3541 27.4248 10.3542 27.7587 10.0308L28.2121 9.59153ZM26.4309 7.8669C26.7803 7.52859 26.7804 6.96827 26.4311 6.62986C26.0972 6.3064 25.5669 6.30632 25.2329 6.62969L24.7794 7.06883C24.4299 7.40727 24.43 7.96787 24.7796 8.30621C25.1135 8.62936 25.6436 8.62928 25.9774 8.30604L26.4309 7.8669ZM24.6492 6.14167C24.9985 5.80339 24.9985 5.24309 24.6492 4.90481C24.3154 4.58159 23.7853 4.58159 23.4515 4.90481L22.998 5.34395C22.6487 5.68223 22.6487 6.24253 22.998 6.58081C23.3318 6.90402 23.8619 6.90402 24.1957 6.58081L24.6492 6.14167ZM22.8685 4.41608C23.2177 4.07799 23.2177 3.51801 22.8685 3.17992C22.5349 2.85689 22.0052 2.85689 21.6716 3.17992L21.2166 3.62042C20.8675 3.95851 20.8675 4.51849 21.2166 4.85658C21.5503 5.17961 22.08 5.17961 22.4136 4.85658L22.8685 4.41608ZM22.9366 1.95498C22.8693 2.02016 22.8693 2.1281 22.9366 2.19328L23.5734 2.80992C23.8393 3.06734 24.2614 3.06734 24.5273 2.80992L24.6274 2.71299C25.0193 2.33355 24.7689 1.69434 24.2254 1.7412C23.8206 1.77612 23.4131 1.834 23.0055 1.91606C22.979 1.9214 22.9549 1.93507 22.9366 1.95498ZM25.9774 11.7558C26.3268 11.4176 26.3268 10.8572 25.9774 10.519C25.6436 10.1958 25.1135 10.1958 24.7797 10.519L24.3259 10.9584C23.9764 11.2969 23.9766 11.8574 24.3262 12.1956C24.6601 12.5185 25.1899 12.5184 25.5235 12.1953L25.9774 11.7558ZM24.196 10.0309C24.5455 9.6925 24.5455 9.13191 24.1958 8.79356C23.8619 8.47042 23.3318 8.4705 22.998 8.79373L22.5445 9.23287C22.1951 9.57118 22.195 10.1315 22.5443 10.4699C22.8782 10.7934 23.4085 10.7935 23.7425 10.4701L24.196 10.0309ZM22.4141 8.30632C22.7637 7.96794 22.7637 7.4073 22.4141 7.06895C22.0802 6.74584 21.5502 6.74591 21.2164 7.06912L20.7629 7.50826C20.4135 7.84657 20.4135 8.40693 20.7629 8.74524C21.0966 9.06844 21.6266 9.06849 21.9605 8.74537L22.4141 8.30632ZM20.6333 6.58045C20.9825 6.24237 20.9825 5.68238 20.6333 5.3443C20.2997 5.02127 19.7699 5.02127 19.4363 5.3443L18.9821 5.78412C18.633 6.1222 18.633 6.68219 18.9821 7.02027C19.3157 7.3433 19.8455 7.3433 20.1791 7.02027L20.6333 6.58045ZM19.1197 4.59814C19.3229 4.40147 19.3229 4.0756 19.1196 3.87898C18.9536 3.71841 18.6987 3.69149 18.5073 3.82085C18.1339 4.07333 17.7687 4.34827 17.4145 4.64514C17.1575 4.86055 17.1531 5.24943 17.3939 5.48281C17.62 5.70192 17.9792 5.70203 18.2055 5.48306L19.1197 4.59814ZM19.8868 3.00715C19.6991 3.10276 19.6655 3.35393 19.8169 3.50049C19.9383 3.61813 20.1313 3.61813 20.2528 3.50049L20.2847 3.46955C20.5611 3.20198 20.3005 2.79939 19.9567 2.97184C19.9334 2.98353 19.9101 2.9953 19.8868 3.00715ZM11.3225 22.4366C11.2194 22.6139 11.2482 22.8393 11.3956 22.982C11.5356 23.1176 11.748 23.1445 11.9192 23.0511C12.1297 22.9363 12.3413 22.825 12.5542 22.717C12.9613 22.5106 13.3721 22.3172 13.7868 22.1372C14.4489 21.85 14.5767 20.8899 14.0582 20.3879C13.5248 19.8716 12.5513 20.0059 12.2393 20.6796C12.0538 21.0804 11.8544 21.4766 11.6416 21.8687C11.5381 22.0589 11.4319 22.2483 11.3225 22.4366Z" fill="#00224A"/>
</svg>
