<svg width="37" height="35" viewBox="0 0 37 35" fill="none" xmlns="http://www.w3.org/2000/svg">
<path d="M12.3258 34.8683C12.3386 34.8427 12.32 34.8127 12.2915 34.8127C12.2011 34.8127 12.1107 34.8127 12.0202 34.8127C10.2973 34.646 9.0189 33.1453 9.13005 31.4224C9.17012 30.9221 8.57835 30.6296 8.20524 30.9654L6.46242 32.534C5.79549 33.1453 4.96179 33.4232 4.07254 33.3676C3.1833 33.3121 2.40515 32.8675 1.79379 32.2005C0.754272 30.8874 0.845788 28.9819 2.01532 27.8094C2.05198 27.7727 2.09062 27.7354 2.12732 27.6987L4.47109 25.8536C4.64954 25.7131 4.90621 25.5915 4.90621 25.3644L5.96214 17.0278C5.96214 16.8858 5.92187 16.7438 5.80694 16.6361C5.7654 16.5972 5.71372 16.5715 5.66169 16.5485L1.39747 14.6593C1.38642 14.6544 1.31329 14.6379 1.30121 14.6379C1.29947 14.6379 1.29283 14.6375 1.29128 14.6367C0.403512 14.1916 -0.0957288 13.2476 0.0153283 12.248C0.0153283 12.1007 0.0373631 11.9541 0.0807018 11.8133L1.57154 6.96814C1.84943 6.13447 2.62752 3.96693 4.90621 4.18925C6.01777 4.3004 7.0737 4.91177 7.62947 5.80102C8.06181 6.50357 8.12638 7.25866 7.87414 8.01521C7.85986 8.05802 7.8588 8.07685 7.84322 8.1192C7.82977 8.15576 7.7869 8.20825 7.76876 8.24272C7.70041 8.37259 7.63352 8.50606 7.56912 8.64026C7.0591 9.7031 7.5404 10.8197 8.71787 10.8772C11.0939 10.9932 15.12 10.2687 18.6789 9.21096C18.7229 9.19789 18.7684 9.19126 18.8143 9.19126C18.8422 9.19126 18.8702 9.18866 18.8977 9.18414C20.438 8.93121 21.8609 9.92712 22.2465 11.4144C22.4688 12.1925 22.302 13.0817 21.913 13.8042C21.4683 14.4712 20.7458 14.9714 19.9677 15.1381L14.0607 16.564C13.702 16.6505 13.1873 16.7144 13.1873 17.0833L12.9471 19.3944C12.8157 20.659 13.171 21.9261 13.9407 22.938L15.7439 25.3089C16.1329 25.8091 16.2996 26.5316 16.244 27.1429L15.5215 32.0338C15.3569 33.6803 13.9999 34.8932 12.3604 34.9233C12.3319 34.9238 12.3131 34.8938 12.3258 34.8683ZM10.3806 26.6427C10.3969 26.5774 10.4557 26.5301 10.5229 26.5332C10.6206 26.5377 10.7057 26.5544 10.8113 26.6166C10.8395 26.6331 10.8684 26.6489 10.8977 26.6632C11.259 26.8399 11.4622 27.2158 11.4088 27.6431L11.1865 31.5336C11.1865 32.2005 11.6311 32.7563 12.2425 32.8119C12.9094 32.8674 13.4651 32.3673 13.5763 31.7559L14.2457 27.2244C14.2811 26.9851 14.3587 26.7026 14.1877 26.5316L10.9641 22.3077C10.7974 22.0854 10.7419 21.863 10.7419 21.5851L11.1865 16.9166C11.2977 15.8606 12.0201 15.0269 13.0205 14.749L18.8893 13.3325C19.2735 13.2397 19.7083 13.2135 19.9825 12.929C20.0375 12.8719 20.0881 12.8101 20.1345 12.7483C20.3012 12.5259 20.3012 12.248 20.2456 11.9702C20.1757 11.6554 19.9738 11.4287 19.7091 11.3177C19.3843 11.1815 19.0221 11.3038 18.6838 11.4018C17.7067 11.6848 15.6484 12.2233 13.4097 12.5815C8.90785 13.3596 6.29566 13.0817 5.1841 11.6923C4.59892 10.9475 4.77757 9.59167 5.76874 7.67355C5.85743 7.50191 5.91946 7.33007 5.89106 7.13897C5.87586 7.03667 5.82431 6.92233 5.75492 6.84564C5.50411 6.56847 5.07269 6.34981 4.68382 6.3012C4.35035 6.3012 3.96133 6.24564 3.46113 7.74625L2.08457 12.2329C2.00235 12.5009 1.9321 12.8452 2.18281 12.9705L6.52547 14.8945C6.53647 14.8993 6.60872 14.9158 6.62074 14.9158C6.62265 14.9158 6.62993 14.9163 6.63159 14.9172C7.51925 15.4178 8.01841 16.3618 7.90736 17.4168L6.85144 25.7535C6.79586 26.4204 6.46234 26.9762 5.96214 27.3652L3.40563 29.4216C2.96101 29.8663 2.96096 30.5332 3.35 31.0334C3.47749 31.2246 3.62326 31.3427 3.78731 31.4192C4.03694 31.5355 4.32784 31.5536 4.59203 31.4758C4.77549 31.4218 4.94318 31.3299 5.07297 31.2001L9.68583 27.0318C9.82499 26.8926 10.0417 26.7922 10.2388 26.7628C10.3054 26.7528 10.3643 26.7081 10.3806 26.6427Z" fill="#00224A"/>
<path d="M10.4083 28.5882C10.0749 28.5882 9.74139 28.4215 9.57465 28.1436L5.57307 21.9189C5.29518 21.4743 5.40634 20.8073 5.85096 20.5294C6.29559 20.2515 6.96252 20.3627 7.24041 20.8073L11.242 27.0321C11.5199 27.4767 11.4087 28.1436 10.9641 28.4215C10.7974 28.5327 10.6306 28.5882 10.4083 28.5882Z" fill="#00224A"/>
<path d="M12.7982 7.69092C12.6871 7.69092 12.5759 7.69092 12.4647 7.69092C11.5199 7.57976 10.6863 7.13515 10.075 6.41263C9.46362 5.69012 9.18565 4.74531 9.29681 3.85606C9.46354 1.91084 11.1865 0.521383 13.1318 0.688117C15.077 0.85485 16.4664 2.57778 16.2997 4.52301C16.1329 6.35708 14.5767 7.69092 12.7982 7.69092ZM12.7982 2.68891C12.0202 2.68891 11.3532 3.2447 11.2977 4.02279C11.2977 4.41184 11.3532 4.80088 11.6311 5.13435C11.9089 5.46782 12.2424 5.63455 12.6315 5.69013C13.4651 5.74571 14.1877 5.18991 14.2988 4.35624C14.3544 3.52258 13.7987 2.80006 12.965 2.68891C12.965 2.68891 12.8538 2.68891 12.7982 2.68891Z" fill="#00224A"/>
<path d="M23.8582 8.05208C23.8582 8.03673 23.8458 8.02429 23.8305 8.02429C23.7207 8.02429 23.5714 8.02429 23.4692 8.02429C22.4132 7.91314 21.4129 7.41292 20.7459 6.57925C20.079 5.74558 19.7455 4.68961 19.8566 3.63363C19.9678 2.57765 20.468 1.57726 21.3017 0.91033C22.1354 0.243395 23.1914 -0.0900926 24.2474 0.0210632C25.3033 0.132219 26.3037 0.632441 26.9706 1.46611C27.6376 2.29978 27.9711 3.35575 27.8599 4.41173C27.7488 5.46771 27.2485 6.46809 26.4149 7.13503C25.6994 7.74038 24.8205 8.07328 23.886 8.07976C23.8707 8.07987 23.8582 8.06742 23.8582 8.05208ZM23.8582 1.91073C23.4136 1.91073 22.9135 2.07745 22.58 2.35534C22.1354 2.68881 21.9131 3.18901 21.8575 3.74479C21.8575 4.30057 21.9687 4.80078 22.3021 5.2454C22.6356 5.69002 23.1358 5.91233 23.6916 5.96791C24.2474 5.96791 24.7475 5.85676 25.1922 5.52329C25.6368 5.18982 25.8591 4.68962 25.9147 4.13384C25.9147 3.57806 25.8035 3.07785 25.4701 2.63323C25.1366 2.18861 24.6364 1.9663 24.0806 1.91073C24.025 1.91073 23.9694 1.91073 23.8582 1.91073Z" fill="#00224A"/>
<path d="M35.5852 31.0892C35.0294 31.0892 34.5848 30.6446 34.5848 30.0888V14.5383C34.5848 11.8427 31.8935 9.97601 29.3687 10.9205C27.8596 11.4851 26.8595 12.927 26.8595 14.5383V25.2535C26.8595 25.8093 26.4149 26.2539 25.8591 26.2539C25.3033 26.2539 24.8586 25.8093 24.8586 25.2535V11.1367C24.8586 10.6921 25.1365 10.3586 25.5256 10.1919L35.2517 6.57931C35.5851 6.46816 35.9187 6.52374 36.1966 6.69047C36.4745 6.85721 36.6411 7.19068 36.6411 7.52414V30.0888C36.6411 30.6446 36.1966 31.0892 35.6408 31.0892H35.5852Z" fill="#00224A"/>
<path d="M35.5852 22.3635C35.3643 22.3635 35.1448 22.3281 34.9351 22.2586L25.5256 19.14C24.9698 18.9733 24.6919 18.4175 24.8587 17.8617C25.0254 17.3059 25.5812 17.028 26.137 17.1948L35.8631 20.4183C36.4189 20.585 36.6968 21.1408 36.53 21.6966C36.3633 22.1412 35.9743 22.3635 35.5852 22.3635Z" fill="#00224A"/>
<path d="M35.5852 16.0832L25.8591 15.7497C25.3033 15.7497 24.8586 15.2495 24.8586 14.6938C24.8586 14.138 25.3589 13.6934 25.9147 13.6934L35.6408 14.0268C36.1966 14.0268 36.6411 14.527 36.6411 15.0828C36.6411 15.6386 36.1966 16.0832 35.6408 16.0832H35.5852Z" fill="#00224A"/>
<path d="M30.6942 20.7518C30.1384 20.7518 29.6938 20.3072 29.6938 19.7514V9.35831C29.6938 8.80253 30.1384 8.35791 30.6942 8.35791C31.25 8.35791 31.6946 8.80253 31.6946 9.35831V19.7514C31.6946 20.3072 31.25 20.7518 30.6942 20.7518Z" fill="#00224A"/>
</svg>
