<?xml version="1.0" encoding="utf-8"?><svg fill="none" viewBox="0 0 952 952" xmlns="http://www.w3.org/2000/svg"><g transform="translate(476,476)"><g transform="scale(1.333,1.333) translate(-357.04,-357.04)"><g><g><path fill="#000000" fill-opacity="1" d="M609.41,104.55C576.64,71.78,538.47,46.05,495.94,28.05C451.92,9.45,405.19,0,356.96,0C308.81,0.07,262.08,9.44,218.06,28.12C175.54,46.12,137.37,71.85,104.59,104.62C71.82,137.39,46.09,175.57,28.09,218.1C9.49,262.12,0.04,308.85,0.04,357.08C0.04,405.23,9.49,452.02,28.09,496.05C46.09,538.57,71.82,576.76,104.59,609.53C137.36,642.31,175.53,668.03,218.06,686.03C262.08,704.63,308.81,714.08,357.04,714.08C405.19,714.08,451.99,704.63,496.02,686.03C538.54,668.03,576.71,642.31,609.49,609.53C642.26,576.76,667.99,538.57,685.99,496.05C704.59,452.02,714.04,405.31,714.04,357.08C714.04,308.93,704.59,262.13,685.99,218.1C667.91,175.5,642.18,137.4,609.41,104.55L609.41,104.55ZM159.41,80.62C162.64,78.14,165.79,75.52,169.09,73.2C186.41,61.05,205.61,51.22,225.11,43.05C266.66,25.65,311.81,16.5,356.96,16.5C387.03,16.5,417.86,20.55,446.89,28.5C435.41,33.15,421.39,42,397.84,62.1C378.27,60,358.47,59.92,338.59,61.8C312.64,64.28,286.54,70.05,261.04,79.05C238.02,87.15,219.78,96.38,207.48,103.43C188.66,96.68,164.36,88.72,152.36,84.82C154.24,85.42,158.13,81.6,159.41,80.62L159.41,80.62ZM484.61,169.88L423.56,336.52L277.09,364.65L156.04,239.62C164.22,182.92,203.06,132.68,203.06,132.68C203.29,132.53,228.64,114.23,269.29,100.05C292.99,91.73,317.14,86.4,341.21,84.15C360.86,82.35,380.44,82.66,399.79,84.98L484.61,169.88ZM29.51,345.15C25.76,369.38,24.94,394.5,26.89,419.77C23.96,413.92,21.64,408.98,19.91,405C17.66,389.32,16.54,373.28,16.54,356.93C16.54,306.68,27.41,258.91,46.98,215.93C44.8,238.43,45.86,261.75,47.43,279.45C39.04,300.52,33.04,322.5,29.51,345.15L29.51,345.15ZM59.14,474.98C55.69,462.3,51.63,443.85,49.61,421.73C47.36,396.75,48.04,371.92,51.79,348.15C54.64,329.92,59.22,312.22,65.52,295.2C90.2,274.35,122.89,262.12,140.96,256.5L259.76,379.2L247.31,513.68L131.21,552.45C101.66,530.7,77.52,501.9,59.14,474.98L59.14,474.98ZM411.94,669.68C386.06,686.63,320.66,690.68,294.11,691.65C264.86,686.18,236.43,676.8,209.66,663.9C186.26,652.65,164.06,638.7,143.81,622.35C144.19,621.67,140.66,585.9,140.81,572.85L258.11,533.7L393.49,592.27L412.16,669.45C412.01,669.6,411.94,669.68,411.94,669.68L411.94,669.68ZM636.86,550.95C616.68,580.05,592.54,607.13,563.51,627.68C536.28,646.88,499.84,653.48,467.44,658.8C464.96,659.18,433.99,664.28,433.76,663.23L415.09,585.98L510.41,486.75L636.64,475.12C638.59,495.22,641.14,524.55,642.64,542.48C640.69,545.33,638.81,548.18,636.86,550.95L636.86,550.95ZM638.81,450C638.36,450.75,637.91,451.58,637.46,452.48L511.76,464.02L444.11,345.68L505.31,178.65L591.71,184.13C610.09,199.51,626.36,216.6,640.16,235.05C657.41,258.23,670.83,283.66,679.98,310.58C670.38,393.98,648.26,435.52,638.81,450L638.81,450ZM683.89,262.35C676.46,248.03,667.76,234.22,657.94,221.1C642.42,200.33,623.96,181.21,603.04,164.18C599.22,145.2,588.72,115.35,560.52,84C561.04,84.38,561.57,84.82,562.09,85.2C563.82,86.47,565.46,87.83,567.19,89.1C586.62,104.4,604.31,121.72,619.99,140.77C649.09,176.25,671.07,217.42,683.97,261.6C683.89,261.9,683.89,262.12,683.89,262.35L683.89,262.35Z" /></g></g></g></g></svg>
